<mxfile host="app.diagrams.net" modified="2022-12-09T06:58:18.752Z" agent="5.0 (Macintosh; Intel Mac OS X 10_15_7) AppleWebKit/537.36 (KHTML, like Gecko) Chrome/107.0.0.0 Safari/537.36" etag="vxZ0MRHvuokviZwMWWcv" version="20.6.0" type="github">
  <diagram id="UW2Let9FedXbePVIwO7e" name="Page-1">
    <mxGraphModel dx="1453" dy="1243" grid="1" gridSize="15" guides="1" tooltips="1" connect="1" arrows="1" fold="1" page="1" pageScale="1" pageWidth="850" pageHeight="1100" math="0" shadow="1">
      <root>
        <mxCell id="0" />
        <mxCell id="1" parent="0" />
        <mxCell id="GJOkn2DgcXXOF6PlL42Y-3" value="SA-RNI Service" style="swimlane;rounded=1;dashed=1;fillColor=#fad7ac;strokeColor=#b46504;swimlaneFillColor=#CDBFC7;gradientColor=#ffffff;" parent="1" vertex="1">
          <mxGeometry x="1217" y="17" width="229" height="898" as="geometry" />
        </mxCell>
        <mxCell id="GJOkn2DgcXXOF6PlL42Y-16" value="GET ALL-device-threshold" style="swimlane;fontStyle=0;childLayout=stackLayout;horizontal=1;startSize=30;horizontalStack=0;resizeParent=1;resizeParentMax=0;resizeLast=0;collapsible=1;marginBottom=0;rounded=1;" parent="GJOkn2DgcXXOF6PlL42Y-3" vertex="1">
          <mxGeometry x="22.5" y="765" width="187.5" height="90" as="geometry" />
        </mxCell>
        <mxCell id="GJOkn2DgcXXOF6PlL42Y-17" value="RQ: deviceID+InputID" style="text;strokeColor=none;fillColor=none;align=left;verticalAlign=middle;spacingLeft=4;spacingRight=4;overflow=hidden;points=[[0,0.5],[1,0.5]];portConstraint=eastwest;rotatable=0;rounded=1;" parent="GJOkn2DgcXXOF6PlL42Y-16" vertex="1">
          <mxGeometry y="30" width="187.5" height="30" as="geometry" />
        </mxCell>
        <mxCell id="GJOkn2DgcXXOF6PlL42Y-18" value="RS: (*) cat:high; psi:56; &#xa;        dur: 5 mins" style="text;strokeColor=none;fillColor=none;align=left;verticalAlign=middle;spacingLeft=4;spacingRight=4;overflow=hidden;points=[[0,0.5],[1,0.5]];portConstraint=eastwest;rotatable=0;rounded=1;" parent="GJOkn2DgcXXOF6PlL42Y-16" vertex="1">
          <mxGeometry y="60" width="187.5" height="30" as="geometry" />
        </mxCell>
        <mxCell id="wjF6M2Yu668ZBDFbbwRF-30" value="GET JobStatus" style="swimlane;fontStyle=0;childLayout=stackLayout;horizontal=1;startSize=30;horizontalStack=0;resizeParent=1;resizeParentMax=0;resizeLast=0;collapsible=1;marginBottom=0;rounded=1;" parent="GJOkn2DgcXXOF6PlL42Y-3" vertex="1">
          <mxGeometry x="20.25" y="630" width="187.5" height="90" as="geometry" />
        </mxCell>
        <mxCell id="wjF6M2Yu668ZBDFbbwRF-31" value="RQ: JobId" style="text;strokeColor=none;fillColor=none;align=left;verticalAlign=middle;spacingLeft=4;spacingRight=4;overflow=hidden;points=[[0,0.5],[1,0.5]];portConstraint=eastwest;rotatable=0;rounded=1;" parent="wjF6M2Yu668ZBDFbbwRF-30" vertex="1">
          <mxGeometry y="30" width="187.5" height="30" as="geometry" />
        </mxCell>
        <mxCell id="wjF6M2Yu668ZBDFbbwRF-32" value="RS: Success / Fail" style="text;strokeColor=none;fillColor=none;align=left;verticalAlign=middle;spacingLeft=4;spacingRight=4;overflow=hidden;points=[[0,0.5],[1,0.5]];portConstraint=eastwest;rotatable=0;rounded=1;" parent="wjF6M2Yu668ZBDFbbwRF-30" vertex="1">
          <mxGeometry y="60" width="187.5" height="30" as="geometry" />
        </mxCell>
        <mxCell id="GJOkn2DgcXXOF6PlL42Y-4" value="RNI 4.10.x service" style="swimlane;rounded=1;dashed=1;fillColor=#f5f5f5;gradientColor=#b3b3b3;strokeColor=#666666;swimlaneFillColor=#E6E6E6;" parent="GJOkn2DgcXXOF6PlL42Y-3" vertex="1">
          <mxGeometry x="320" width="150" height="870" as="geometry" />
        </mxCell>
        <mxCell id="GJOkn2DgcXXOF6PlL42Y-71" value="POST edit-threshold" style="text;strokeColor=#23445d;fillColor=#bac8d3;align=left;verticalAlign=middle;spacingLeft=4;spacingRight=4;overflow=hidden;points=[[0,0.5],[1,0.5]];portConstraint=eastwest;rotatable=0;rounded=1;" parent="GJOkn2DgcXXOF6PlL42Y-4" vertex="1">
          <mxGeometry x="15" y="405" width="120" height="32.5" as="geometry" />
        </mxCell>
        <mxCell id="GJOkn2DgcXXOF6PlL42Y-19" value="GET current-config" style="text;strokeColor=#23445d;fillColor=#bac8d3;align=left;verticalAlign=middle;spacingLeft=4;spacingRight=4;overflow=hidden;points=[[0,0.5],[1,0.5]];portConstraint=eastwest;rotatable=0;rounded=1;" parent="GJOkn2DgcXXOF6PlL42Y-4" vertex="1">
          <mxGeometry x="15" y="810" width="120" height="32.5" as="geometry" />
        </mxCell>
        <mxCell id="wjF6M2Yu668ZBDFbbwRF-2" value="POST remove-&#xa;            threshold" style="text;strokeColor=#23445d;fillColor=#bac8d3;align=left;verticalAlign=middle;spacingLeft=4;spacingRight=4;overflow=hidden;points=[[0,0.5],[1,0.5]];portConstraint=eastwest;rotatable=0;rounded=1;" parent="GJOkn2DgcXXOF6PlL42Y-4" vertex="1">
          <mxGeometry x="15" y="501" width="120" height="32.5" as="geometry" />
        </mxCell>
        <mxCell id="wjF6M2Yu668ZBDFbbwRF-57" value="GET Job Status" style="text;strokeColor=#23445d;fillColor=#bac8d3;align=left;verticalAlign=middle;spacingLeft=4;spacingRight=4;overflow=hidden;points=[[0,0.5],[1,0.5]];portConstraint=eastwest;rotatable=0;rounded=1;" parent="GJOkn2DgcXXOF6PlL42Y-4" vertex="1">
          <mxGeometry x="15" y="660" width="120" height="32.5" as="geometry" />
        </mxCell>
        <mxCell id="wjF6M2Yu668ZBDFbbwRF-69" value="GET about" style="text;strokeColor=#23445d;fillColor=#bac8d3;align=left;verticalAlign=middle;spacingLeft=4;spacingRight=4;overflow=hidden;points=[[0,0.5],[1,0.5]];portConstraint=eastwest;rotatable=0;rounded=1;" parent="GJOkn2DgcXXOF6PlL42Y-4" vertex="1">
          <mxGeometry x="15" y="60" width="120" height="32.5" as="geometry" />
        </mxCell>
        <mxCell id="GJOkn2DgcXXOF6PlL42Y-67" value="POST edit-threshold" style="swimlane;fontStyle=0;childLayout=stackLayout;horizontal=1;startSize=30;horizontalStack=0;resizeParent=1;resizeParentMax=0;resizeLast=0;collapsible=1;marginBottom=0;rounded=1;" parent="GJOkn2DgcXXOF6PlL42Y-3" vertex="1">
          <mxGeometry x="25.5" y="360" width="187.5" height="120" as="geometry" />
        </mxCell>
        <mxCell id="GJOkn2DgcXXOF6PlL42Y-68" value="RQ: deviceID+InputID" style="text;strokeColor=none;fillColor=none;align=left;verticalAlign=middle;spacingLeft=4;spacingRight=4;overflow=hidden;points=[[0,0.5],[1,0.5]];portConstraint=eastwest;rotatable=0;rounded=1;" parent="GJOkn2DgcXXOF6PlL42Y-67" vertex="1">
          <mxGeometry y="30" width="187.5" height="30" as="geometry" />
        </mxCell>
        <mxCell id="GJOkn2DgcXXOF6PlL42Y-69" value="Body:cat (*): threshold+duration &#xa;            value" style="text;strokeColor=none;fillColor=none;align=left;verticalAlign=middle;spacingLeft=4;spacingRight=4;overflow=hidden;points=[[0,0.5],[1,0.5]];portConstraint=eastwest;rotatable=0;rounded=1;" parent="GJOkn2DgcXXOF6PlL42Y-67" vertex="1">
          <mxGeometry y="60" width="187.5" height="30" as="geometry" />
        </mxCell>
        <mxCell id="GJOkn2DgcXXOF6PlL42Y-70" value="RS: JobID" style="text;strokeColor=none;fillColor=none;align=left;verticalAlign=middle;spacingLeft=4;spacingRight=4;overflow=hidden;points=[[0,0.5],[1,0.5]];portConstraint=eastwest;rotatable=0;rounded=1;" parent="GJOkn2DgcXXOF6PlL42Y-67" vertex="1">
          <mxGeometry y="90" width="187.5" height="30" as="geometry" />
        </mxCell>
        <mxCell id="wjF6M2Yu668ZBDFbbwRF-3" value="POST remove-threshold" style="swimlane;fontStyle=0;childLayout=stackLayout;horizontal=1;startSize=30;horizontalStack=0;resizeParent=1;resizeParentMax=0;resizeLast=0;collapsible=1;marginBottom=0;rounded=1;" parent="GJOkn2DgcXXOF6PlL42Y-3" vertex="1">
          <mxGeometry x="25.5" y="488" width="187.5" height="120" as="geometry" />
        </mxCell>
        <mxCell id="wjF6M2Yu668ZBDFbbwRF-4" value="RQ: deviceID+InputID" style="text;strokeColor=none;fillColor=none;align=left;verticalAlign=middle;spacingLeft=4;spacingRight=4;overflow=hidden;points=[[0,0.5],[1,0.5]];portConstraint=eastwest;rotatable=0;rounded=1;" parent="wjF6M2Yu668ZBDFbbwRF-3" vertex="1">
          <mxGeometry y="30" width="187.5" height="30" as="geometry" />
        </mxCell>
        <mxCell id="wjF6M2Yu668ZBDFbbwRF-5" value="Body:: category Names" style="text;strokeColor=none;fillColor=none;align=left;verticalAlign=middle;spacingLeft=4;spacingRight=4;overflow=hidden;points=[[0,0.5],[1,0.5]];portConstraint=eastwest;rotatable=0;rounded=1;" parent="wjF6M2Yu668ZBDFbbwRF-3" vertex="1">
          <mxGeometry y="60" width="187.5" height="30" as="geometry" />
        </mxCell>
        <mxCell id="wjF6M2Yu668ZBDFbbwRF-6" value="RS: JobID" style="text;strokeColor=none;fillColor=none;align=left;verticalAlign=middle;spacingLeft=4;spacingRight=4;overflow=hidden;points=[[0,0.5],[1,0.5]];portConstraint=eastwest;rotatable=0;rounded=1;" parent="wjF6M2Yu668ZBDFbbwRF-3" vertex="1">
          <mxGeometry y="90" width="187.5" height="30" as="geometry" />
        </mxCell>
        <mxCell id="wjF6M2Yu668ZBDFbbwRF-43" value="" style="endArrow=classic;html=1;rounded=0;entryX=1;entryY=0.5;entryDx=0;entryDy=0;exitX=0.004;exitY=0.892;exitDx=0;exitDy=0;dashed=1;exitPerimeter=0;" parent="GJOkn2DgcXXOF6PlL42Y-3" source="GJOkn2DgcXXOF6PlL42Y-71" target="GJOkn2DgcXXOF6PlL42Y-69" edge="1">
          <mxGeometry width="50" height="50" relative="1" as="geometry">
            <mxPoint x="229" y="405" as="sourcePoint" />
            <mxPoint x="354" y="406.25" as="targetPoint" />
          </mxGeometry>
        </mxCell>
        <mxCell id="wjF6M2Yu668ZBDFbbwRF-44" value="Async" style="edgeLabel;html=1;align=center;verticalAlign=middle;resizable=0;points=[];" parent="wjF6M2Yu668ZBDFbbwRF-43" vertex="1" connectable="0">
          <mxGeometry x="0.089" y="-1" relative="1" as="geometry">
            <mxPoint x="-1" as="offset" />
          </mxGeometry>
        </mxCell>
        <mxCell id="wjF6M2Yu668ZBDFbbwRF-41" value="" style="endArrow=classic;html=1;rounded=0;entryX=0.013;entryY=0.062;entryDx=0;entryDy=0;exitX=1;exitY=0.5;exitDx=0;exitDy=0;dashed=1;entryPerimeter=0;" parent="GJOkn2DgcXXOF6PlL42Y-3" source="GJOkn2DgcXXOF6PlL42Y-68" target="GJOkn2DgcXXOF6PlL42Y-71" edge="1">
          <mxGeometry width="50" height="50" relative="1" as="geometry">
            <mxPoint x="214" y="390" as="sourcePoint" />
            <mxPoint x="339" y="391.25" as="targetPoint" />
          </mxGeometry>
        </mxCell>
        <mxCell id="wjF6M2Yu668ZBDFbbwRF-42" value="Store+Fwd" style="edgeLabel;html=1;align=center;verticalAlign=middle;resizable=0;points=[];" parent="wjF6M2Yu668ZBDFbbwRF-41" vertex="1" connectable="0">
          <mxGeometry x="0.089" y="-1" relative="1" as="geometry">
            <mxPoint x="-1" as="offset" />
          </mxGeometry>
        </mxCell>
        <mxCell id="wjF6M2Yu668ZBDFbbwRF-53" value="" style="endArrow=classic;html=1;rounded=0;entryX=1;entryY=0.5;entryDx=0;entryDy=0;exitX=0.013;exitY=0.938;exitDx=0;exitDy=0;dashed=1;exitPerimeter=0;" parent="GJOkn2DgcXXOF6PlL42Y-3" source="GJOkn2DgcXXOF6PlL42Y-19" target="GJOkn2DgcXXOF6PlL42Y-18" edge="1">
          <mxGeometry width="50" height="50" relative="1" as="geometry">
            <mxPoint x="351.48" y="563.99" as="sourcePoint" />
            <mxPoint x="228" y="578" as="targetPoint" />
          </mxGeometry>
        </mxCell>
        <mxCell id="wjF6M2Yu668ZBDFbbwRF-54" value="PUSH &lt;br&gt;changes" style="edgeLabel;html=1;align=center;verticalAlign=middle;resizable=0;points=[];" parent="wjF6M2Yu668ZBDFbbwRF-53" vertex="1" connectable="0">
          <mxGeometry x="0.089" y="-1" relative="1" as="geometry">
            <mxPoint x="-1" as="offset" />
          </mxGeometry>
        </mxCell>
        <mxCell id="wjF6M2Yu668ZBDFbbwRF-55" value="" style="endArrow=classic;html=1;rounded=0;entryX=-0.008;entryY=0;entryDx=0;entryDy=0;entryPerimeter=0;exitX=1;exitY=0.5;exitDx=0;exitDy=0;" parent="GJOkn2DgcXXOF6PlL42Y-3" source="GJOkn2DgcXXOF6PlL42Y-17" target="GJOkn2DgcXXOF6PlL42Y-19" edge="1">
          <mxGeometry width="50" height="50" relative="1" as="geometry">
            <mxPoint x="274" y="615" as="sourcePoint" />
            <mxPoint x="384" y="631.25" as="targetPoint" />
          </mxGeometry>
        </mxCell>
        <mxCell id="wjF6M2Yu668ZBDFbbwRF-56" value="&amp;nbsp; GET&amp;nbsp; All&amp;nbsp;" style="edgeLabel;html=1;align=center;verticalAlign=middle;resizable=0;points=[];" parent="wjF6M2Yu668ZBDFbbwRF-55" vertex="1" connectable="0">
          <mxGeometry x="0.089" y="-1" relative="1" as="geometry">
            <mxPoint x="-1" as="offset" />
          </mxGeometry>
        </mxCell>
        <mxCell id="wjF6M2Yu668ZBDFbbwRF-60" value="" style="endArrow=classic;html=1;rounded=0;entryX=0;entryY=0.5;entryDx=0;entryDy=0;exitX=1;exitY=0.5;exitDx=0;exitDy=0;" parent="GJOkn2DgcXXOF6PlL42Y-3" source="wjF6M2Yu668ZBDFbbwRF-31" target="wjF6M2Yu668ZBDFbbwRF-57" edge="1">
          <mxGeometry width="50" height="50" relative="1" as="geometry">
            <mxPoint x="199" y="660" as="sourcePoint" />
            <mxPoint x="324" y="661.25" as="targetPoint" />
          </mxGeometry>
        </mxCell>
        <mxCell id="wjF6M2Yu668ZBDFbbwRF-61" value="&amp;nbsp; GET&amp;nbsp;" style="edgeLabel;html=1;align=center;verticalAlign=middle;resizable=0;points=[];" parent="wjF6M2Yu668ZBDFbbwRF-60" vertex="1" connectable="0">
          <mxGeometry x="0.089" y="-1" relative="1" as="geometry">
            <mxPoint x="-1" as="offset" />
          </mxGeometry>
        </mxCell>
        <mxCell id="GJOkn2DgcXXOF6PlL42Y-47" value="GET event-ranges" style="text;strokeColor=#23445d;fillColor=#bac8d3;align=left;verticalAlign=middle;spacingLeft=4;spacingRight=4;overflow=hidden;points=[[0,0.5],[1,0.5]];portConstraint=eastwest;rotatable=0;rounded=1;" parent="GJOkn2DgcXXOF6PlL42Y-3" vertex="1">
          <mxGeometry x="332.75" y="285" width="120" height="32.5" as="geometry" />
        </mxCell>
        <mxCell id="GJOkn2DgcXXOF6PlL42Y-41" value="GET device-constraint" style="swimlane;fontStyle=0;childLayout=stackLayout;horizontal=1;startSize=30;horizontalStack=0;resizeParent=1;resizeParentMax=0;resizeLast=0;collapsible=1;marginBottom=0;rounded=1;" parent="GJOkn2DgcXXOF6PlL42Y-3" vertex="1">
          <mxGeometry x="20.25" y="255" width="187.5" height="90" as="geometry" />
        </mxCell>
        <mxCell id="GJOkn2DgcXXOF6PlL42Y-42" value="RQ: deviceID" style="text;strokeColor=none;fillColor=none;align=left;verticalAlign=middle;spacingLeft=4;spacingRight=4;overflow=hidden;points=[[0,0.5],[1,0.5]];portConstraint=eastwest;rotatable=0;rounded=1;" parent="GJOkn2DgcXXOF6PlL42Y-41" vertex="1">
          <mxGeometry y="30" width="187.5" height="30" as="geometry" />
        </mxCell>
        <mxCell id="GJOkn2DgcXXOF6PlL42Y-43" value="RS: threshold+duration&#xa;            ranges" style="text;strokeColor=none;fillColor=none;align=left;verticalAlign=middle;spacingLeft=4;spacingRight=4;overflow=hidden;points=[[0,0.5],[1,0.5]];portConstraint=eastwest;rotatable=0;rounded=1;" parent="GJOkn2DgcXXOF6PlL42Y-41" vertex="1">
          <mxGeometry y="60" width="187.5" height="30" as="geometry" />
        </mxCell>
        <mxCell id="wjF6M2Yu668ZBDFbbwRF-39" value="" style="endArrow=classic;html=1;rounded=0;entryX=0;entryY=0.5;entryDx=0;entryDy=0;exitX=1;exitY=0.5;exitDx=0;exitDy=0;" parent="GJOkn2DgcXXOF6PlL42Y-3" source="GJOkn2DgcXXOF6PlL42Y-42" target="GJOkn2DgcXXOF6PlL42Y-47" edge="1">
          <mxGeometry width="50" height="50" relative="1" as="geometry">
            <mxPoint x="-529.25" y="419" as="sourcePoint" />
            <mxPoint x="35.25" y="315" as="targetPoint" />
          </mxGeometry>
        </mxCell>
        <mxCell id="wjF6M2Yu668ZBDFbbwRF-40" value="&amp;nbsp; GET&amp;nbsp;" style="edgeLabel;html=1;align=center;verticalAlign=middle;resizable=0;points=[];" parent="wjF6M2Yu668ZBDFbbwRF-39" vertex="1" connectable="0">
          <mxGeometry x="0.089" y="-1" relative="1" as="geometry">
            <mxPoint x="-1" as="offset" />
          </mxGeometry>
        </mxCell>
        <mxCell id="wjF6M2Yu668ZBDFbbwRF-67" value="GET feature-support" style="swimlane;fontStyle=0;childLayout=stackLayout;horizontal=1;startSize=30;horizontalStack=0;resizeParent=1;resizeParentMax=0;resizeLast=0;collapsible=1;marginBottom=0;rounded=1;" parent="GJOkn2DgcXXOF6PlL42Y-3" vertex="1">
          <mxGeometry x="25.5" y="45" width="150" height="75" as="geometry" />
        </mxCell>
        <mxCell id="wjF6M2Yu668ZBDFbbwRF-68" value="RQ: utilityName&#xa;RS: Feature-List" style="text;strokeColor=none;fillColor=none;align=left;verticalAlign=middle;spacingLeft=4;spacingRight=4;overflow=hidden;points=[[0,0.5],[1,0.5]];portConstraint=eastwest;rotatable=0;rounded=1;" parent="wjF6M2Yu668ZBDFbbwRF-67" vertex="1">
          <mxGeometry y="30" width="150" height="45" as="geometry" />
        </mxCell>
        <mxCell id="wjF6M2Yu668ZBDFbbwRF-70" value="" style="endArrow=classic;html=1;rounded=0;entryX=0;entryY=0.5;entryDx=0;entryDy=0;exitX=1;exitY=0.278;exitDx=0;exitDy=0;exitPerimeter=0;" parent="GJOkn2DgcXXOF6PlL42Y-3" source="wjF6M2Yu668ZBDFbbwRF-68" target="wjF6M2Yu668ZBDFbbwRF-69" edge="1">
          <mxGeometry width="50" height="50" relative="1" as="geometry">
            <mxPoint x="210" y="75" as="sourcePoint" />
            <mxPoint x="-1179.5" y="90" as="targetPoint" />
          </mxGeometry>
        </mxCell>
        <mxCell id="wjF6M2Yu668ZBDFbbwRF-71" value="&amp;nbsp; GET&amp;nbsp;" style="edgeLabel;html=1;align=center;verticalAlign=middle;resizable=0;points=[];" parent="wjF6M2Yu668ZBDFbbwRF-70" vertex="1" connectable="0">
          <mxGeometry x="0.089" y="-1" relative="1" as="geometry">
            <mxPoint x="-1" as="offset" />
          </mxGeometry>
        </mxCell>
        <mxCell id="wjF6M2Yu668ZBDFbbwRF-83" value="GET CURRENT-threshold" style="swimlane;fontStyle=0;childLayout=stackLayout;horizontal=1;startSize=30;horizontalStack=0;resizeParent=1;resizeParentMax=0;resizeLast=0;collapsible=1;marginBottom=0;rounded=1;" parent="GJOkn2DgcXXOF6PlL42Y-3" vertex="1">
          <mxGeometry x="25.5" y="134" width="184.5" height="90" as="geometry" />
        </mxCell>
        <mxCell id="wjF6M2Yu668ZBDFbbwRF-84" value="RQ: deviceID" style="text;strokeColor=none;fillColor=none;align=left;verticalAlign=middle;spacingLeft=4;spacingRight=4;overflow=hidden;points=[[0,0.5],[1,0.5]];portConstraint=eastwest;rotatable=0;rounded=1;" parent="wjF6M2Yu668ZBDFbbwRF-83" vertex="1">
          <mxGeometry y="30" width="184.5" height="30" as="geometry" />
        </mxCell>
        <mxCell id="wjF6M2Yu668ZBDFbbwRF-85" value="RS: threshold+duration&#xa;            ranges" style="text;strokeColor=none;fillColor=none;align=left;verticalAlign=middle;spacingLeft=4;spacingRight=4;overflow=hidden;points=[[0,0.5],[1,0.5]];portConstraint=eastwest;rotatable=0;rounded=1;" parent="wjF6M2Yu668ZBDFbbwRF-83" vertex="1">
          <mxGeometry y="60" width="184.5" height="30" as="geometry" />
        </mxCell>
        <mxCell id="NkGoriXdBeGFRCCLlbzc-29" value="PPA-backend Service (node)" style="swimlane;rounded=1;dashed=1;fillColor=#b1ddf0;strokeColor=#10739e;swimlaneFillColor=#F5FAFF;gradientColor=#ffffff;" parent="1" vertex="1">
          <mxGeometry x="531" y="662" width="212" height="165" as="geometry" />
        </mxCell>
        <mxCell id="NkGoriXdBeGFRCCLlbzc-30" value="GET current-device-config" style="swimlane;fontStyle=0;childLayout=stackLayout;horizontal=1;startSize=30;horizontalStack=0;resizeParent=1;resizeParentMax=0;resizeLast=0;collapsible=1;marginBottom=0;rounded=1;" parent="NkGoriXdBeGFRCCLlbzc-29" vertex="1">
          <mxGeometry x="30" y="40" width="150" height="90" as="geometry" />
        </mxCell>
        <mxCell id="NkGoriXdBeGFRCCLlbzc-31" value="RQ: List&lt;deviceID&gt;" style="text;strokeColor=none;fillColor=none;align=left;verticalAlign=middle;spacingLeft=4;spacingRight=4;overflow=hidden;points=[[0,0.5],[1,0.5]];portConstraint=eastwest;rotatable=0;rounded=1;" parent="NkGoriXdBeGFRCCLlbzc-30" vertex="1">
          <mxGeometry y="30" width="150" height="30" as="geometry" />
        </mxCell>
        <mxCell id="NkGoriXdBeGFRCCLlbzc-32" value="RS: (List) threshold&#xa;        +duration" style="text;strokeColor=none;fillColor=none;align=left;verticalAlign=middle;spacingLeft=4;spacingRight=4;overflow=hidden;points=[[0,0.5],[1,0.5]];portConstraint=eastwest;rotatable=0;rounded=1;" parent="NkGoriXdBeGFRCCLlbzc-30" vertex="1">
          <mxGeometry y="60" width="150" height="30" as="geometry" />
        </mxCell>
        <mxCell id="GJOkn2DgcXXOF6PlL42Y-2" value="PPA-API Service (java)" style="swimlane;rounded=1;dashed=1;fillColor=#b1ddf0;strokeColor=#10739e;swimlaneFillColor=#CCE5FF;gradientColor=#ffffff;" parent="1" vertex="1">
          <mxGeometry x="525" y="17" width="216" height="615" as="geometry" />
        </mxCell>
        <mxCell id="wjF6M2Yu668ZBDFbbwRF-16" value="GET feature-support" style="swimlane;fontStyle=0;childLayout=stackLayout;horizontal=1;startSize=30;horizontalStack=0;resizeParent=1;resizeParentMax=0;resizeLast=0;collapsible=1;marginBottom=0;rounded=1;" parent="GJOkn2DgcXXOF6PlL42Y-2" vertex="1">
          <mxGeometry x="28.5" y="35" width="150" height="75" as="geometry" />
        </mxCell>
        <mxCell id="wjF6M2Yu668ZBDFbbwRF-17" value="RQ: utilityName&#xa;RS: edit=true; &#xa;    disable=false" style="text;strokeColor=none;fillColor=none;align=left;verticalAlign=middle;spacingLeft=4;spacingRight=4;overflow=hidden;points=[[0,0.5],[1,0.5]];portConstraint=eastwest;rotatable=0;rounded=1;" parent="wjF6M2Yu668ZBDFbbwRF-16" vertex="1">
          <mxGeometry y="30" width="150" height="45" as="geometry" />
        </mxCell>
        <mxCell id="wjF6M2Yu668ZBDFbbwRF-78" value="     GET current-device-config" style="swimlane;fontStyle=0;childLayout=stackLayout;horizontal=1;startSize=33;horizontalStack=0;resizeParent=1;resizeParentMax=0;resizeLast=0;collapsible=1;marginBottom=0;rounded=1;" parent="GJOkn2DgcXXOF6PlL42Y-2" vertex="1">
          <mxGeometry x="22.5" y="145" width="157.5" height="103" as="geometry" />
        </mxCell>
        <mxCell id="wjF6M2Yu668ZBDFbbwRF-79" value="RQ: DeviceId" style="text;strokeColor=none;fillColor=none;align=left;verticalAlign=middle;spacingLeft=4;spacingRight=4;overflow=hidden;points=[[0,0.5],[1,0.5]];portConstraint=eastwest;rotatable=0;rounded=1;" parent="wjF6M2Yu668ZBDFbbwRF-78" vertex="1">
          <mxGeometry y="33" width="157.5" height="30" as="geometry" />
        </mxCell>
        <mxCell id="wjF6M2Yu668ZBDFbbwRF-80" value="RS: Current Threshold" style="text;strokeColor=none;fillColor=none;align=left;verticalAlign=middle;spacingLeft=4;spacingRight=4;overflow=hidden;points=[[0,0.5],[1,0.5]];portConstraint=eastwest;rotatable=0;rounded=1;" parent="wjF6M2Yu668ZBDFbbwRF-78" vertex="1">
          <mxGeometry y="63" width="157.5" height="40" as="geometry" />
        </mxCell>
        <mxCell id="GJOkn2DgcXXOF6PlL42Y-61" value="POST threshold&#xa;-configuration" style="swimlane;fontStyle=0;childLayout=stackLayout;horizontal=1;startSize=30;horizontalStack=0;resizeParent=1;resizeParentMax=0;resizeLast=0;collapsible=1;marginBottom=0;rounded=1;" parent="GJOkn2DgcXXOF6PlL42Y-2" vertex="1">
          <mxGeometry x="26.5" y="401" width="151.5" height="150" as="geometry" />
        </mxCell>
        <mxCell id="GJOkn2DgcXXOF6PlL42Y-62" value="RQ: deviceID+InputID&#xa;" style="text;strokeColor=none;fillColor=none;align=left;verticalAlign=middle;spacingLeft=4;spacingRight=4;overflow=hidden;points=[[0,0.5],[1,0.5]];portConstraint=eastwest;rotatable=0;rounded=1;" parent="GJOkn2DgcXXOF6PlL42Y-61" vertex="1">
          <mxGeometry y="30" width="151.5" height="30" as="geometry" />
        </mxCell>
        <mxCell id="GJOkn2DgcXXOF6PlL42Y-63" value="Body: cat (*): threshold&#xa;        +disabled - value" style="text;strokeColor=none;fillColor=none;align=left;verticalAlign=middle;spacingLeft=4;spacingRight=4;overflow=hidden;points=[[0,0.5],[1,0.5]];portConstraint=eastwest;rotatable=0;rounded=1;" parent="GJOkn2DgcXXOF6PlL42Y-61" vertex="1">
          <mxGeometry y="60" width="151.5" height="30" as="geometry" />
        </mxCell>
        <mxCell id="GJOkn2DgcXXOF6PlL42Y-66" value="RS: JobId/&#xa;        Submitted/Failed" style="text;strokeColor=none;fillColor=none;align=left;verticalAlign=middle;spacingLeft=4;spacingRight=4;overflow=hidden;points=[[0,0.5],[1,0.5]];portConstraint=eastwest;rotatable=0;rounded=1;" parent="GJOkn2DgcXXOF6PlL42Y-61" vertex="1">
          <mxGeometry y="90" width="151.5" height="60" as="geometry" />
        </mxCell>
        <mxCell id="l2k97XLpl-mliVpzi99C-5" value="     GET device-constraint&#xa;aka RANGES" style="swimlane;fontStyle=0;childLayout=stackLayout;horizontal=1;startSize=33;horizontalStack=0;resizeParent=1;resizeParentMax=0;resizeLast=0;collapsible=1;marginBottom=0;rounded=1;" vertex="1" parent="GJOkn2DgcXXOF6PlL42Y-2">
          <mxGeometry x="28.5" y="263" width="151.5" height="103" as="geometry" />
        </mxCell>
        <mxCell id="l2k97XLpl-mliVpzi99C-6" value="RQ: DeviceId+InputID" style="text;strokeColor=none;fillColor=none;align=left;verticalAlign=middle;spacingLeft=4;spacingRight=4;overflow=hidden;points=[[0,0.5],[1,0.5]];portConstraint=eastwest;rotatable=0;rounded=1;" vertex="1" parent="l2k97XLpl-mliVpzi99C-5">
          <mxGeometry y="33" width="151.5" height="30" as="geometry" />
        </mxCell>
        <mxCell id="l2k97XLpl-mliVpzi99C-7" value="RS: Threshold RANGES" style="text;strokeColor=none;fillColor=none;align=left;verticalAlign=middle;spacingLeft=4;spacingRight=4;overflow=hidden;points=[[0,0.5],[1,0.5]];portConstraint=eastwest;rotatable=0;rounded=1;" vertex="1" parent="l2k97XLpl-mliVpzi99C-5">
          <mxGeometry y="63" width="151.5" height="40" as="geometry" />
        </mxCell>
        <mxCell id="NkGoriXdBeGFRCCLlbzc-5" value="Chronos-PPA" style="swimlane;rounded=1;dashed=1;fillColor=#b1ddf0;strokeColor=#10739e;swimlaneFillColor=#FFFFCC;gradientColor=#ffffff;startSize=45;" parent="1" vertex="1">
          <mxGeometry x="975" y="550" width="161" height="315" as="geometry" />
        </mxCell>
        <mxCell id="GJOkn2DgcXXOF6PlL42Y-6" value="GET DeviceConfig- &#xa;Poll" style="swimlane;fontStyle=0;childLayout=stackLayout;horizontal=1;startSize=30;horizontalStack=0;resizeParent=1;resizeParentMax=0;resizeLast=0;collapsible=1;marginBottom=0;rounded=1;" parent="NkGoriXdBeGFRCCLlbzc-5" vertex="1">
          <mxGeometry x="13" y="193" width="137" height="90" as="geometry" />
        </mxCell>
        <mxCell id="GJOkn2DgcXXOF6PlL42Y-7" value="RQ: paginate &#xa;    + changedSince" style="text;strokeColor=none;fillColor=none;align=left;verticalAlign=middle;spacingLeft=4;spacingRight=4;overflow=hidden;points=[[0,0.5],[1,0.5]];portConstraint=eastwest;rotatable=0;rounded=1;" parent="GJOkn2DgcXXOF6PlL42Y-6" vertex="1">
          <mxGeometry y="30" width="137" height="30" as="geometry" />
        </mxCell>
        <mxCell id="GJOkn2DgcXXOF6PlL42Y-8" value="RS: List&lt;DeviceConfig&gt;" style="text;strokeColor=none;fillColor=none;align=left;verticalAlign=middle;spacingLeft=4;spacingRight=4;overflow=hidden;points=[[0,0.5],[1,0.5]];portConstraint=eastwest;rotatable=0;rounded=1;" parent="GJOkn2DgcXXOF6PlL42Y-6" vertex="1">
          <mxGeometry y="60" width="137" height="30" as="geometry" />
        </mxCell>
        <mxCell id="wjF6M2Yu668ZBDFbbwRF-22" value="GET JobStatus" style="swimlane;fontStyle=0;childLayout=stackLayout;horizontal=1;startSize=30;horizontalStack=0;resizeParent=1;resizeParentMax=0;resizeLast=0;collapsible=1;marginBottom=0;rounded=1;" parent="NkGoriXdBeGFRCCLlbzc-5" vertex="1">
          <mxGeometry x="21" y="75" width="129" height="90" as="geometry" />
        </mxCell>
        <mxCell id="wjF6M2Yu668ZBDFbbwRF-23" value="RQ: JobId" style="text;strokeColor=none;fillColor=none;align=left;verticalAlign=middle;spacingLeft=4;spacingRight=4;overflow=hidden;points=[[0,0.5],[1,0.5]];portConstraint=eastwest;rotatable=0;rounded=1;" parent="wjF6M2Yu668ZBDFbbwRF-22" vertex="1">
          <mxGeometry y="30" width="129" height="30" as="geometry" />
        </mxCell>
        <mxCell id="wjF6M2Yu668ZBDFbbwRF-24" value="RS: Success/Failed" style="text;strokeColor=none;fillColor=none;align=left;verticalAlign=middle;spacingLeft=4;spacingRight=4;overflow=hidden;points=[[0,0.5],[1,0.5]];portConstraint=eastwest;rotatable=0;rounded=1;" parent="wjF6M2Yu668ZBDFbbwRF-22" vertex="1">
          <mxGeometry y="60" width="129" height="30" as="geometry" />
        </mxCell>
        <mxCell id="GJOkn2DgcXXOF6PlL42Y-1" value="U I" style="swimlane;rounded=1;dashed=1;fillColor=#dae8fc;strokeColor=#6c8ebf;gradientColor=#ffffff;swimlaneFillColor=#D5E8D4;" parent="1" vertex="1">
          <mxGeometry x="135" y="45" width="238" height="765" as="geometry" />
        </mxCell>
        <mxCell id="GJOkn2DgcXXOF6PlL42Y-30" value="Render EDIT + DISABLE Modal" style="swimlane;fontStyle=0;childLayout=stackLayout;horizontal=1;startSize=30;horizontalStack=0;resizeParent=1;resizeParentMax=0;resizeLast=0;collapsible=1;marginBottom=0;rounded=1;labelBackgroundColor=none;fillColor=#b1ddf0;strokeColor=#10739e;" parent="GJOkn2DgcXXOF6PlL42Y-1" vertex="1">
          <mxGeometry x="17" y="217.91" width="196" height="90" as="geometry" />
        </mxCell>
        <mxCell id="GJOkn2DgcXXOF6PlL42Y-31" value="For: deviceID+InputID" style="text;strokeColor=none;fillColor=none;align=left;verticalAlign=middle;spacingLeft=4;spacingRight=4;overflow=hidden;points=[[0,0.5],[1,0.5]];portConstraint=eastwest;rotatable=0;rounded=1;" parent="GJOkn2DgcXXOF6PlL42Y-30" vertex="1">
          <mxGeometry y="30" width="196" height="30" as="geometry" />
        </mxCell>
        <mxCell id="GJOkn2DgcXXOF6PlL42Y-32" value="cat (*): threshold+duration&#xa;            +disabled" style="text;strokeColor=none;fillColor=none;align=left;verticalAlign=middle;spacingLeft=4;spacingRight=4;overflow=hidden;points=[[0,0.5],[1,0.5]];portConstraint=eastwest;rotatable=0;rounded=1;" parent="GJOkn2DgcXXOF6PlL42Y-30" vertex="1">
          <mxGeometry y="60" width="196" height="30" as="geometry" />
        </mxCell>
        <mxCell id="wjF6M2Yu668ZBDFbbwRF-74" value="At Session Start" style="text;strokeColor=default;fillColor=none;align=left;verticalAlign=middle;spacingLeft=4;spacingRight=4;overflow=hidden;points=[[0,0.5],[1,0.5]];portConstraint=eastwest;rotatable=0;rounded=1;dashed=1;" parent="GJOkn2DgcXXOF6PlL42Y-1" vertex="1">
          <mxGeometry x="30" y="45" width="169" height="30" as="geometry" />
        </mxCell>
        <mxCell id="wjF6M2Yu668ZBDFbbwRF-77" value="pre-Render EDIT Modal" style="text;strokeColor=default;fillColor=none;align=left;verticalAlign=middle;spacingLeft=4;spacingRight=4;overflow=hidden;points=[[0,0.5],[1,0.5]];portConstraint=eastwest;rotatable=0;rounded=1;dashed=1;" parent="GJOkn2DgcXXOF6PlL42Y-1" vertex="1">
          <mxGeometry x="33" y="148" width="169" height="30" as="geometry" />
        </mxCell>
        <mxCell id="GJOkn2DgcXXOF6PlL42Y-54" value="SUBMIT - threshold change" style="swimlane;fontStyle=0;childLayout=stackLayout;horizontal=1;startSize=30;horizontalStack=0;resizeParent=1;resizeParentMax=0;resizeLast=0;collapsible=1;marginBottom=0;rounded=1;labelBackgroundColor=none;fillColor=#b1ddf0;strokeColor=#10739e;" parent="GJOkn2DgcXXOF6PlL42Y-1" vertex="1">
          <mxGeometry x="13.5" y="412.90999999999997" width="196" height="90" as="geometry" />
        </mxCell>
        <mxCell id="GJOkn2DgcXXOF6PlL42Y-55" value="For: deviceID+InputID&#xa;cat (*): threshold+duration&#xa;            +disabled" style="text;strokeColor=none;fillColor=none;align=left;verticalAlign=middle;spacingLeft=4;spacingRight=4;overflow=hidden;points=[[0,0.5],[1,0.5]];portConstraint=eastwest;rotatable=0;rounded=1;" parent="GJOkn2DgcXXOF6PlL42Y-54" vertex="1">
          <mxGeometry y="30" width="196" height="30" as="geometry" />
        </mxCell>
        <mxCell id="GJOkn2DgcXXOF6PlL42Y-56" value="Response: JobId/Submitted/Failed" style="text;strokeColor=none;fillColor=none;align=left;verticalAlign=middle;spacingLeft=4;spacingRight=4;overflow=hidden;points=[[0,0.5],[1,0.5]];portConstraint=eastwest;rotatable=0;rounded=1;" parent="GJOkn2DgcXXOF6PlL42Y-54" vertex="1">
          <mxGeometry y="60" width="196" height="30" as="geometry" />
        </mxCell>
        <mxCell id="GJOkn2DgcXXOF6PlL42Y-58" value="" style="endArrow=classic;html=1;rounded=0;entryX=0.25;entryY=0;entryDx=0;entryDy=0;exitX=0.235;exitY=1.053;exitDx=0;exitDy=0;exitPerimeter=0;" parent="GJOkn2DgcXXOF6PlL42Y-1" source="GJOkn2DgcXXOF6PlL42Y-32" target="GJOkn2DgcXXOF6PlL42Y-54" edge="1">
          <mxGeometry width="50" height="50" relative="1" as="geometry">
            <mxPoint x="77.01999999999998" y="308.50999999999976" as="sourcePoint" />
            <mxPoint x="77.5" y="390.90999999999985" as="targetPoint" />
          </mxGeometry>
        </mxCell>
        <mxCell id="wjF6M2Yu668ZBDFbbwRF-108" value="" style="endArrow=classic;html=1;rounded=0;entryX=0.467;entryY=0.007;entryDx=0;entryDy=0;exitX=0.453;exitY=1.017;exitDx=0;exitDy=0;exitPerimeter=0;entryPerimeter=0;" parent="GJOkn2DgcXXOF6PlL42Y-1" source="wjF6M2Yu668ZBDFbbwRF-77" target="GJOkn2DgcXXOF6PlL42Y-30" edge="1">
          <mxGeometry width="50" height="50" relative="1" as="geometry">
            <mxPoint x="128.43200000000002" y="323.9899999999998" as="sourcePoint" />
            <mxPoint x="129.5" y="373.90999999999985" as="targetPoint" />
          </mxGeometry>
        </mxCell>
        <mxCell id="GJOkn2DgcXXOF6PlL42Y-12" value="Display Current threshold" style="swimlane;fontStyle=0;childLayout=stackLayout;horizontal=1;startSize=30;horizontalStack=0;resizeParent=1;resizeParentMax=0;resizeLast=0;collapsible=1;marginBottom=0;rounded=1;labelBackgroundColor=none;fillColor=#b1ddf0;strokeColor=#10739e;" parent="GJOkn2DgcXXOF6PlL42Y-1" vertex="1">
          <mxGeometry x="16.5" y="585" width="180" height="90" as="geometry" />
        </mxCell>
        <mxCell id="GJOkn2DgcXXOF6PlL42Y-13" value="For: List&lt;deviceID&gt;" style="text;strokeColor=none;fillColor=none;align=left;verticalAlign=middle;spacingLeft=4;spacingRight=4;overflow=hidden;points=[[0,0.5],[1,0.5]];portConstraint=eastwest;rotatable=0;rounded=1;" parent="GJOkn2DgcXXOF6PlL42Y-12" vertex="1">
          <mxGeometry y="30" width="180" height="30" as="geometry" />
        </mxCell>
        <mxCell id="GJOkn2DgcXXOF6PlL42Y-14" value="Display:high; psi:56; dur: 5 mins" style="text;strokeColor=none;fillColor=none;align=left;verticalAlign=middle;spacingLeft=4;spacingRight=4;overflow=hidden;points=[[0,0.5],[1,0.5]];portConstraint=eastwest;rotatable=0;rounded=1;" parent="GJOkn2DgcXXOF6PlL42Y-12" vertex="1">
          <mxGeometry y="60" width="180" height="30" as="geometry" />
        </mxCell>
        <mxCell id="wjF6M2Yu668ZBDFbbwRF-109" value="close-Modal" style="text;strokeColor=default;fillColor=none;align=left;verticalAlign=middle;spacingLeft=4;spacingRight=4;overflow=hidden;points=[[0,0.5],[1,0.5]];portConstraint=eastwest;rotatable=0;rounded=1;dashed=1;" parent="GJOkn2DgcXXOF6PlL42Y-1" vertex="1">
          <mxGeometry x="58.25" y="532" width="100.5" height="30" as="geometry" />
        </mxCell>
        <mxCell id="wjF6M2Yu668ZBDFbbwRF-110" value="" style="endArrow=classic;html=1;rounded=0;exitX=0.469;exitY=1.036;exitDx=0;exitDy=0;exitPerimeter=0;" parent="GJOkn2DgcXXOF6PlL42Y-1" source="GJOkn2DgcXXOF6PlL42Y-56" target="wjF6M2Yu668ZBDFbbwRF-109" edge="1">
          <mxGeometry width="50" height="50" relative="1" as="geometry">
            <mxPoint x="128.43200000000002" y="377.9899999999998" as="sourcePoint" />
            <mxPoint x="129.5" y="427.90999999999985" as="targetPoint" />
          </mxGeometry>
        </mxCell>
        <mxCell id="l2k97XLpl-mliVpzi99C-11" value="display Err.Msg" style="text;strokeColor=default;fillColor=none;align=left;verticalAlign=middle;spacingLeft=4;spacingRight=4;overflow=hidden;points=[[0,0.5],[1,0.5]];portConstraint=eastwest;rotatable=0;rounded=1;dashed=1;" vertex="1" parent="GJOkn2DgcXXOF6PlL42Y-1">
          <mxGeometry x="95" y="354" width="100.5" height="30" as="geometry" />
        </mxCell>
        <mxCell id="l2k97XLpl-mliVpzi99C-12" value="" style="endArrow=classic;html=1;rounded=0;exitX=0.527;exitY=0.017;exitDx=0;exitDy=0;exitPerimeter=0;entryX=0.668;entryY=0.986;entryDx=0;entryDy=0;entryPerimeter=0;" edge="1" parent="GJOkn2DgcXXOF6PlL42Y-1" source="l2k97XLpl-mliVpzi99C-11" target="GJOkn2DgcXXOF6PlL42Y-32">
          <mxGeometry width="50" height="50" relative="1" as="geometry">
            <mxPoint x="123.42399999999998" y="507.9899999999998" as="sourcePoint" />
            <mxPoint x="147.92799999999988" y="318.4899999999998" as="targetPoint" />
          </mxGeometry>
        </mxCell>
        <mxCell id="GJOkn2DgcXXOF6PlL42Y-5" value="PPA &lt;br&gt;User" style="shape=umlActor;verticalLabelPosition=bottom;verticalAlign=top;html=1;outlineConnect=0;rounded=1;" parent="1" vertex="1">
          <mxGeometry x="9" y="405" width="30" height="60" as="geometry" />
        </mxCell>
        <mxCell id="GJOkn2DgcXXOF6PlL42Y-92" value="" style="endArrow=classic;html=1;rounded=0;entryX=0;entryY=0.5;entryDx=0;entryDy=0;exitX=1;exitY=0.25;exitDx=0;exitDy=0;" parent="1" source="GJOkn2DgcXXOF6PlL42Y-54" target="GJOkn2DgcXXOF6PlL42Y-63" edge="1">
          <mxGeometry width="50" height="50" relative="1" as="geometry">
            <mxPoint x="643" y="463.90999999999997" as="sourcePoint" />
            <mxPoint x="540" y="435" as="targetPoint" />
          </mxGeometry>
        </mxCell>
        <mxCell id="wjF6M2Yu668ZBDFbbwRF-97" value="POST&lt;br&gt;&amp;nbsp;edit+disable" style="edgeLabel;html=1;align=center;verticalAlign=middle;resizable=0;points=[];" parent="GJOkn2DgcXXOF6PlL42Y-92" vertex="1" connectable="0">
          <mxGeometry x="-0.1618" y="-1" relative="1" as="geometry">
            <mxPoint x="-12" y="-6" as="offset" />
          </mxGeometry>
        </mxCell>
        <mxCell id="GJOkn2DgcXXOF6PlL42Y-94" value="" style="endArrow=classic;html=1;rounded=0;entryX=0;entryY=0.5;entryDx=0;entryDy=0;exitX=1;exitY=0.5;exitDx=0;exitDy=0;" parent="1" source="l2k97XLpl-mliVpzi99C-6" target="GJOkn2DgcXXOF6PlL42Y-42" edge="1">
          <mxGeometry width="50" height="50" relative="1" as="geometry">
            <mxPoint x="690" y="240" as="sourcePoint" />
            <mxPoint x="1129" y="197.16" as="targetPoint" />
          </mxGeometry>
        </mxCell>
        <mxCell id="wjF6M2Yu668ZBDFbbwRF-38" value="&amp;nbsp; GET&amp;nbsp;" style="edgeLabel;html=1;align=center;verticalAlign=middle;resizable=0;points=[];" parent="GJOkn2DgcXXOF6PlL42Y-94" vertex="1" connectable="0">
          <mxGeometry x="0.089" y="-1" relative="1" as="geometry">
            <mxPoint x="-1" as="offset" />
          </mxGeometry>
        </mxCell>
        <mxCell id="GJOkn2DgcXXOF6PlL42Y-118" value="&amp;nbsp;POST edit-request" style="endArrow=classic;html=1;rounded=0;entryX=0;entryY=0.5;entryDx=0;entryDy=0;exitX=1;exitY=0.5;exitDx=0;exitDy=0;" parent="1" source="GJOkn2DgcXXOF6PlL42Y-62" target="GJOkn2DgcXXOF6PlL42Y-69" edge="1">
          <mxGeometry width="50" height="50" relative="1" as="geometry">
            <mxPoint x="1039" y="282" as="sourcePoint" />
            <mxPoint x="1181.5" y="301.40999999999997" as="targetPoint" />
          </mxGeometry>
        </mxCell>
        <mxCell id="NkGoriXdBeGFRCCLlbzc-1" value="View &lt;br&gt;thresholds" style="endArrow=classic;html=1;rounded=0;entryX=0;entryY=0.5;entryDx=0;entryDy=0;" parent="1" source="GJOkn2DgcXXOF6PlL42Y-5" target="GJOkn2DgcXXOF6PlL42Y-13" edge="1">
          <mxGeometry width="50" height="50" relative="1" as="geometry">
            <mxPoint x="75" y="297.3724489795918" as="sourcePoint" />
            <mxPoint x="225" y="435" as="targetPoint" />
          </mxGeometry>
        </mxCell>
        <mxCell id="NkGoriXdBeGFRCCLlbzc-15" value="PPA &lt;br&gt;App DB" style="shape=cylinder3;whiteSpace=wrap;html=1;boundedLbl=1;backgroundOutline=1;size=7;" parent="1" vertex="1">
          <mxGeometry x="840" y="563" width="90" height="69" as="geometry" />
        </mxCell>
        <mxCell id="NkGoriXdBeGFRCCLlbzc-37" value="" style="endArrow=classic;html=1;rounded=0;entryX=0;entryY=0.5;entryDx=0;entryDy=0;exitX=1;exitY=0.5;exitDx=0;exitDy=0;" parent="1" source="GJOkn2DgcXXOF6PlL42Y-13" target="NkGoriXdBeGFRCCLlbzc-31" edge="1">
          <mxGeometry width="50" height="50" relative="1" as="geometry">
            <mxPoint x="384.5" y="498.90999999999985" as="sourcePoint" />
            <mxPoint x="509" y="465" as="targetPoint" />
          </mxGeometry>
        </mxCell>
        <mxCell id="NkGoriXdBeGFRCCLlbzc-50" value="" style="endArrow=classic;html=1;rounded=0;entryX=0.5;entryY=1;entryDx=0;entryDy=0;entryPerimeter=0;exitX=0;exitY=0.5;exitDx=0;exitDy=0;" parent="1" source="GJOkn2DgcXXOF6PlL42Y-8" target="NkGoriXdBeGFRCCLlbzc-15" edge="1">
          <mxGeometry width="50" height="50" relative="1" as="geometry">
            <mxPoint x="995" y="560" as="sourcePoint" />
            <mxPoint x="946" y="529" as="targetPoint" />
            <Array as="points">
              <mxPoint x="915" y="795" />
            </Array>
          </mxGeometry>
        </mxCell>
        <mxCell id="wjF6M2Yu668ZBDFbbwRF-13" value="&amp;nbsp;Insert / &lt;br&gt;Updare&amp;nbsp;" style="edgeLabel;html=1;align=center;verticalAlign=middle;resizable=0;points=[];" parent="NkGoriXdBeGFRCCLlbzc-50" vertex="1" connectable="0">
          <mxGeometry x="-0.074" y="1" relative="1" as="geometry">
            <mxPoint x="-20" y="-62" as="offset" />
          </mxGeometry>
        </mxCell>
        <mxCell id="wjF6M2Yu668ZBDFbbwRF-14" value="" style="endArrow=classic;html=1;rounded=0;entryX=0;entryY=0.5;entryDx=0;entryDy=0;exitX=0.997;exitY=0.133;exitDx=0;exitDy=0;exitPerimeter=0;" parent="1" source="GJOkn2DgcXXOF6PlL42Y-63" target="wjF6M2Yu668ZBDFbbwRF-4" edge="1">
          <mxGeometry width="50" height="50" relative="1" as="geometry">
            <mxPoint x="772.5" y="299.5" as="sourcePoint" />
            <mxPoint x="1248.5" y="296.90999999999985" as="targetPoint" />
          </mxGeometry>
        </mxCell>
        <mxCell id="wjF6M2Yu668ZBDFbbwRF-37" value="&amp;nbsp;POST disable-request" style="edgeLabel;html=1;align=center;verticalAlign=middle;resizable=0;points=[];" parent="wjF6M2Yu668ZBDFbbwRF-14" vertex="1" connectable="0">
          <mxGeometry x="-0.0124" relative="1" as="geometry">
            <mxPoint as="offset" />
          </mxGeometry>
        </mxCell>
        <mxCell id="wjF6M2Yu668ZBDFbbwRF-25" value="" style="endArrow=classic;html=1;rounded=0;entryX=0.855;entryY=1;entryDx=0;entryDy=-2.03;entryPerimeter=0;exitX=0;exitY=0.5;exitDx=0;exitDy=0;" parent="1" source="wjF6M2Yu668ZBDFbbwRF-24" target="NkGoriXdBeGFRCCLlbzc-15" edge="1">
          <mxGeometry width="50" height="50" relative="1" as="geometry">
            <mxPoint x="931.5" y="843.7837837837837" as="sourcePoint" />
            <mxPoint x="855" y="879.25" as="targetPoint" />
            <Array as="points">
              <mxPoint x="945" y="700" />
            </Array>
          </mxGeometry>
        </mxCell>
        <mxCell id="wjF6M2Yu668ZBDFbbwRF-26" value="&amp;nbsp;Update&amp;nbsp;&amp;nbsp;&lt;br&gt;&amp;nbsp;only" style="edgeLabel;html=1;align=center;verticalAlign=middle;resizable=0;points=[];" parent="wjF6M2Yu668ZBDFbbwRF-25" vertex="1" connectable="0">
          <mxGeometry x="-0.074" y="1" relative="1" as="geometry">
            <mxPoint x="-16" y="-34" as="offset" />
          </mxGeometry>
        </mxCell>
        <mxCell id="wjF6M2Yu668ZBDFbbwRF-33" value="" style="endArrow=classic;html=1;rounded=0;entryX=1;entryY=0.25;entryDx=0;entryDy=0;exitX=0.145;exitY=1;exitDx=0;exitDy=-2.03;exitPerimeter=0;" parent="1" source="NkGoriXdBeGFRCCLlbzc-15" target="NkGoriXdBeGFRCCLlbzc-30" edge="1">
          <mxGeometry width="50" height="50" relative="1" as="geometry">
            <mxPoint x="1273.5" y="467.90999999999985" as="sourcePoint" />
            <mxPoint x="704.5" y="489" as="targetPoint" />
          </mxGeometry>
        </mxCell>
        <mxCell id="wjF6M2Yu668ZBDFbbwRF-45" value="" style="endArrow=classic;html=1;rounded=0;entryX=1;entryY=0.5;entryDx=0;entryDy=0;exitX=0.004;exitY=0.892;exitDx=0;exitDy=0;dashed=1;exitPerimeter=0;" parent="1" target="wjF6M2Yu668ZBDFbbwRF-5" edge="1">
          <mxGeometry width="50" height="50" relative="1" as="geometry">
            <mxPoint x="1547.48" y="548.99" as="sourcePoint" />
            <mxPoint x="1425" y="550" as="targetPoint" />
          </mxGeometry>
        </mxCell>
        <mxCell id="wjF6M2Yu668ZBDFbbwRF-46" value="Async" style="edgeLabel;html=1;align=center;verticalAlign=middle;resizable=0;points=[];" parent="wjF6M2Yu668ZBDFbbwRF-45" vertex="1" connectable="0">
          <mxGeometry x="0.089" y="-1" relative="1" as="geometry">
            <mxPoint x="-1" as="offset" />
          </mxGeometry>
        </mxCell>
        <mxCell id="wjF6M2Yu668ZBDFbbwRF-47" value="" style="endArrow=classic;html=1;rounded=0;entryX=0.013;entryY=0.062;entryDx=0;entryDy=0;exitX=1;exitY=0.5;exitDx=0;exitDy=0;dashed=1;entryPerimeter=0;" parent="1" source="wjF6M2Yu668ZBDFbbwRF-4" edge="1">
          <mxGeometry width="50" height="50" relative="1" as="geometry">
            <mxPoint x="1425" y="520" as="sourcePoint" />
            <mxPoint x="1548.56" y="522.0150000000001" as="targetPoint" />
          </mxGeometry>
        </mxCell>
        <mxCell id="wjF6M2Yu668ZBDFbbwRF-48" value="Store+Fwd" style="edgeLabel;html=1;align=center;verticalAlign=middle;resizable=0;points=[];" parent="wjF6M2Yu668ZBDFbbwRF-47" vertex="1" connectable="0">
          <mxGeometry x="0.089" y="-1" relative="1" as="geometry">
            <mxPoint x="-1" as="offset" />
          </mxGeometry>
        </mxCell>
        <mxCell id="wjF6M2Yu668ZBDFbbwRF-62" value="Create&lt;br&gt;Only" style="endArrow=classic;html=1;rounded=0;exitX=1;exitY=0.5;exitDx=0;exitDy=0;entryX=0;entryY=0;entryDx=0;entryDy=7;entryPerimeter=0;" parent="1" source="GJOkn2DgcXXOF6PlL42Y-66" target="NkGoriXdBeGFRCCLlbzc-15" edge="1">
          <mxGeometry width="50" height="50" relative="1" as="geometry">
            <mxPoint x="787.4000000000001" y="741.97" as="sourcePoint" />
            <mxPoint x="825" y="540" as="targetPoint" />
            <Array as="points" />
          </mxGeometry>
        </mxCell>
        <mxCell id="wjF6M2Yu668ZBDFbbwRF-72" value="" style="endArrow=classic;html=1;rounded=0;entryX=-0.013;entryY=0.322;entryDx=0;entryDy=0;entryPerimeter=0;exitX=1;exitY=0.5;exitDx=0;exitDy=0;" parent="1" source="wjF6M2Yu668ZBDFbbwRF-17" target="wjF6M2Yu668ZBDFbbwRF-68" edge="1">
          <mxGeometry width="50" height="50" relative="1" as="geometry">
            <mxPoint x="675" y="89" as="sourcePoint" />
            <mxPoint x="1567" y="91.25" as="targetPoint" />
          </mxGeometry>
        </mxCell>
        <mxCell id="wjF6M2Yu668ZBDFbbwRF-73" value="&amp;nbsp; GET&amp;nbsp;" style="edgeLabel;html=1;align=center;verticalAlign=middle;resizable=0;points=[];" parent="wjF6M2Yu668ZBDFbbwRF-72" vertex="1" connectable="0">
          <mxGeometry x="0.089" y="-1" relative="1" as="geometry">
            <mxPoint x="-1" as="offset" />
          </mxGeometry>
        </mxCell>
        <mxCell id="wjF6M2Yu668ZBDFbbwRF-75" value="" style="endArrow=classic;html=1;rounded=0;entryX=0;entryY=0.5;entryDx=0;entryDy=0;exitX=1;exitY=0.5;exitDx=0;exitDy=0;" parent="1" source="wjF6M2Yu668ZBDFbbwRF-74" target="wjF6M2Yu668ZBDFbbwRF-17" edge="1">
          <mxGeometry width="50" height="50" relative="1" as="geometry">
            <mxPoint x="712.5" y="117.5" as="sourcePoint" />
            <mxPoint x="1285.5500000000002" y="104.49000000000001" as="targetPoint" />
          </mxGeometry>
        </mxCell>
        <mxCell id="wjF6M2Yu668ZBDFbbwRF-81" value="" style="endArrow=classic;html=1;rounded=0;entryX=0;entryY=0.5;entryDx=0;entryDy=0;exitX=1;exitY=0.5;exitDx=0;exitDy=0;" parent="1" target="wjF6M2Yu668ZBDFbbwRF-79" edge="1" source="wjF6M2Yu668ZBDFbbwRF-77">
          <mxGeometry width="50" height="50" relative="1" as="geometry">
            <mxPoint x="345" y="180" as="sourcePoint" />
            <mxPoint x="562.5" y="117.5" as="targetPoint" />
          </mxGeometry>
        </mxCell>
        <mxCell id="wjF6M2Yu668ZBDFbbwRF-82" value="&amp;nbsp; GET&amp;nbsp;" style="edgeLabel;html=1;align=center;verticalAlign=middle;resizable=0;points=[];" parent="wjF6M2Yu668ZBDFbbwRF-81" vertex="1" connectable="0">
          <mxGeometry x="0.089" y="-1" relative="1" as="geometry">
            <mxPoint x="-1" as="offset" />
          </mxGeometry>
        </mxCell>
        <mxCell id="wjF6M2Yu668ZBDFbbwRF-86" value="" style="endArrow=classic;html=1;rounded=0;entryX=0;entryY=0.5;entryDx=0;entryDy=0;exitX=0.997;exitY=0.067;exitDx=0;exitDy=0;exitPerimeter=0;" parent="1" source="wjF6M2Yu668ZBDFbbwRF-79" target="wjF6M2Yu668ZBDFbbwRF-84" edge="1">
          <mxGeometry width="50" height="50" relative="1" as="geometry">
            <mxPoint x="674.25" y="222" as="sourcePoint" />
            <mxPoint x="1134.25" y="90.16" as="targetPoint" />
          </mxGeometry>
        </mxCell>
        <mxCell id="wjF6M2Yu668ZBDFbbwRF-87" value="&amp;nbsp; GET&amp;nbsp;" style="edgeLabel;html=1;align=center;verticalAlign=middle;resizable=0;points=[];" parent="wjF6M2Yu668ZBDFbbwRF-86" vertex="1" connectable="0">
          <mxGeometry x="0.089" y="-1" relative="1" as="geometry">
            <mxPoint x="-1" as="offset" />
          </mxGeometry>
        </mxCell>
        <mxCell id="wjF6M2Yu668ZBDFbbwRF-94" value="&lt;b&gt;A.2&lt;/b&gt;" style="ellipse;whiteSpace=wrap;html=1;gradientColor=#ffffff;fillColor=#C9DFFF;" parent="1" vertex="1">
          <mxGeometry x="465" y="67.99999999999997" width="45" height="30" as="geometry" />
        </mxCell>
        <mxCell id="wjF6M2Yu668ZBDFbbwRF-101" value="" style="endArrow=classic;html=1;rounded=0;dashed=1;exitX=0;exitY=0.5;exitDx=0;exitDy=0;entryX=1;entryY=0.5;entryDx=0;entryDy=0;" parent="1" source="GJOkn2DgcXXOF6PlL42Y-62" target="l2k97XLpl-mliVpzi99C-11" edge="1">
          <mxGeometry width="50" height="50" relative="1" as="geometry">
            <mxPoint x="510" y="375" as="sourcePoint" />
            <mxPoint x="330" y="405" as="targetPoint" />
          </mxGeometry>
        </mxCell>
        <mxCell id="wjF6M2Yu668ZBDFbbwRF-102" value="Validation&lt;br&gt;&amp;nbsp;Error" style="edgeLabel;html=1;align=center;verticalAlign=middle;resizable=0;points=[];" parent="wjF6M2Yu668ZBDFbbwRF-101" vertex="1" connectable="0">
          <mxGeometry x="-0.1618" y="-1" relative="1" as="geometry">
            <mxPoint x="-44" y="-7" as="offset" />
          </mxGeometry>
        </mxCell>
        <mxCell id="wjF6M2Yu668ZBDFbbwRF-103" value="" style="endArrow=classic;html=1;rounded=0;entryX=1;entryY=0.5;entryDx=0;entryDy=0;exitX=0;exitY=0.5;exitDx=0;exitDy=0;" parent="1" source="GJOkn2DgcXXOF6PlL42Y-66" target="wjF6M2Yu668ZBDFbbwRF-109" edge="1">
          <mxGeometry width="50" height="50" relative="1" as="geometry">
            <mxPoint x="492.5" y="467.59000000000003" as="sourcePoint" />
            <mxPoint x="331" y="450.0000000000001" as="targetPoint" />
          </mxGeometry>
        </mxCell>
        <mxCell id="wjF6M2Yu668ZBDFbbwRF-104" value="Job &lt;br&gt;Submitted" style="edgeLabel;html=1;align=center;verticalAlign=middle;resizable=0;points=[];" parent="wjF6M2Yu668ZBDFbbwRF-103" vertex="1" connectable="0">
          <mxGeometry x="0.2611" y="-2" relative="1" as="geometry">
            <mxPoint x="38" y="-10" as="offset" />
          </mxGeometry>
        </mxCell>
        <mxCell id="wjF6M2Yu668ZBDFbbwRF-107" value="Edit&lt;br&gt;thresholds" style="endArrow=classic;html=1;rounded=0;entryX=0.003;entryY=-0.147;entryDx=0;entryDy=0;exitX=1;exitY=0.3333333333333333;exitDx=0;exitDy=0;exitPerimeter=0;entryPerimeter=0;" parent="1" source="GJOkn2DgcXXOF6PlL42Y-5" target="GJOkn2DgcXXOF6PlL42Y-31" edge="1">
          <mxGeometry width="50" height="50" relative="1" as="geometry">
            <mxPoint x="60" y="405" as="sourcePoint" />
            <mxPoint x="146" y="690" as="targetPoint" />
          </mxGeometry>
        </mxCell>
        <mxCell id="wjF6M2Yu668ZBDFbbwRF-111" style="edgeStyle=orthogonalEdgeStyle;rounded=0;orthogonalLoop=1;jettySize=auto;html=1;exitX=1;exitY=0.5;exitDx=0;exitDy=0;entryX=0;entryY=0.5;entryDx=0;entryDy=0;dashed=1;" parent="1" source="wjF6M2Yu668ZBDFbbwRF-23" target="wjF6M2Yu668ZBDFbbwRF-31" edge="1">
          <mxGeometry relative="1" as="geometry">
            <Array as="points">
              <mxPoint x="1155" y="670" />
              <mxPoint x="1155" y="692" />
            </Array>
          </mxGeometry>
        </mxCell>
        <mxCell id="wjF6M2Yu668ZBDFbbwRF-113" value="&amp;nbsp;POLL&amp;nbsp;" style="edgeLabel;html=1;align=center;verticalAlign=middle;resizable=0;points=[];" parent="wjF6M2Yu668ZBDFbbwRF-111" vertex="1" connectable="0">
          <mxGeometry x="-0.083" relative="1" as="geometry">
            <mxPoint x="8" y="-148" as="offset" />
          </mxGeometry>
        </mxCell>
        <mxCell id="l2k97XLpl-mliVpzi99C-4" value="&amp;nbsp;POLL&amp;nbsp;" style="edgeLabel;html=1;align=center;verticalAlign=middle;resizable=0;points=[];" vertex="1" connectable="0" parent="wjF6M2Yu668ZBDFbbwRF-111">
          <mxGeometry x="-0.0764" y="1" relative="1" as="geometry">
            <mxPoint as="offset" />
          </mxGeometry>
        </mxCell>
        <mxCell id="wjF6M2Yu668ZBDFbbwRF-112" style="edgeStyle=orthogonalEdgeStyle;rounded=0;orthogonalLoop=1;jettySize=auto;html=1;exitX=1;exitY=0.5;exitDx=0;exitDy=0;entryX=0;entryY=0.5;entryDx=0;entryDy=0;dashed=1;" parent="1" source="GJOkn2DgcXXOF6PlL42Y-7" target="GJOkn2DgcXXOF6PlL42Y-17" edge="1">
          <mxGeometry relative="1" as="geometry">
            <Array as="points">
              <mxPoint x="1155" y="788" />
              <mxPoint x="1155" y="827" />
            </Array>
          </mxGeometry>
        </mxCell>
        <mxCell id="wjF6M2Yu668ZBDFbbwRF-114" value="&amp;nbsp;POLL&amp;nbsp;" style="edgeLabel;html=1;align=center;verticalAlign=middle;resizable=0;points=[];" parent="wjF6M2Yu668ZBDFbbwRF-112" vertex="1" connectable="0">
          <mxGeometry x="-0.0691" y="-1" relative="1" as="geometry">
            <mxPoint as="offset" />
          </mxGeometry>
        </mxCell>
        <mxCell id="wjF6M2Yu668ZBDFbbwRF-115" value="&lt;b&gt;A.4&lt;/b&gt;" style="ellipse;whiteSpace=wrap;html=1;gradientColor=#ffffff;fillColor=#C9DFFF;" parent="1" vertex="1">
          <mxGeometry x="467" y="169.99999999999997" width="45" height="30" as="geometry" />
        </mxCell>
        <mxCell id="wjF6M2Yu668ZBDFbbwRF-116" value="&lt;b&gt;A.6&lt;/b&gt;" style="ellipse;whiteSpace=wrap;html=1;gradientColor=#ffffff;fillColor=#C9DFFF;" parent="1" vertex="1">
          <mxGeometry x="469" y="266" width="45" height="30" as="geometry" />
        </mxCell>
        <mxCell id="wjF6M2Yu668ZBDFbbwRF-117" value="&lt;b&gt;A.8&lt;/b&gt;" style="ellipse;whiteSpace=wrap;html=1;gradientColor=#ffffff;fillColor=#C9DFFF;" parent="1" vertex="1">
          <mxGeometry x="470" y="413" width="45" height="30" as="geometry" />
        </mxCell>
        <mxCell id="wjF6M2Yu668ZBDFbbwRF-118" value="&lt;b&gt;A.10&lt;/b&gt;" style="ellipse;whiteSpace=wrap;html=1;gradientColor=#ffffff;fillColor=#C9DFFF;" parent="1" vertex="1">
          <mxGeometry x="470" y="499" width="45" height="30" as="geometry" />
        </mxCell>
        <mxCell id="wjF6M2Yu668ZBDFbbwRF-119" value="&lt;b&gt;A.14&lt;/b&gt;" style="ellipse;whiteSpace=wrap;html=1;gradientColor=#ffffff;fillColor=#C9DFFF;" parent="1" vertex="1">
          <mxGeometry x="469" y="735" width="45" height="30" as="geometry" />
        </mxCell>
        <mxCell id="wjF6M2Yu668ZBDFbbwRF-120" value="&lt;b&gt;A.12&lt;/b&gt;" style="ellipse;whiteSpace=wrap;html=1;gradientColor=#ffffff;fillColor=#C9DFFF;" parent="1" vertex="1">
          <mxGeometry x="468" y="557" width="45" height="30" as="geometry" />
        </mxCell>
        <mxCell id="wjF6M2Yu668ZBDFbbwRF-121" value="&lt;b&gt;C.2&lt;/b&gt;" style="ellipse;whiteSpace=wrap;html=1;gradientColor=#ffffff;fillColor=#FFF08C;" parent="1" vertex="1">
          <mxGeometry x="1160" y="67.99999999999997" width="45" height="30" as="geometry" />
        </mxCell>
        <mxCell id="wjF6M2Yu668ZBDFbbwRF-122" value="&lt;b&gt;C.4&lt;/b&gt;" style="ellipse;whiteSpace=wrap;html=1;gradientColor=#ffffff;fillColor=#FFF08C;" parent="1" vertex="1">
          <mxGeometry x="1160" y="157.99999999999997" width="45" height="30" as="geometry" />
        </mxCell>
        <mxCell id="wjF6M2Yu668ZBDFbbwRF-123" value="&lt;b&gt;C.14&lt;br&gt;&lt;/b&gt;" style="ellipse;whiteSpace=wrap;html=1;gradientColor=#ffffff;fillColor=#FFF08C;" parent="1" vertex="1">
          <mxGeometry x="1160" y="846" width="45" height="30" as="geometry" />
        </mxCell>
        <mxCell id="wjF6M2Yu668ZBDFbbwRF-124" value="&lt;b&gt;C.12&lt;/b&gt;" style="ellipse;whiteSpace=wrap;html=1;gradientColor=#ffffff;fillColor=#FFF08C;" parent="1" vertex="1">
          <mxGeometry x="1160" y="705" width="45" height="30" as="geometry" />
        </mxCell>
        <mxCell id="wjF6M2Yu668ZBDFbbwRF-125" value="&lt;b&gt;C.10&lt;/b&gt;" style="ellipse;whiteSpace=wrap;html=1;gradientColor=#ffffff;fillColor=#FFF08C;" parent="1" vertex="1">
          <mxGeometry x="1160" y="495" width="45" height="30" as="geometry" />
        </mxCell>
        <mxCell id="wjF6M2Yu668ZBDFbbwRF-126" value="&lt;b&gt;C.8&lt;/b&gt;" style="ellipse;whiteSpace=wrap;html=1;gradientColor=#ffffff;fillColor=#FFF08C;" parent="1" vertex="1">
          <mxGeometry x="1160" y="412" width="45" height="30" as="geometry" />
        </mxCell>
        <mxCell id="wjF6M2Yu668ZBDFbbwRF-127" value="&lt;b&gt;C.6&lt;/b&gt;" style="ellipse;whiteSpace=wrap;html=1;gradientColor=#ffffff;fillColor=#FFF08C;" parent="1" vertex="1">
          <mxGeometry x="1160" y="277" width="45" height="30" as="geometry" />
        </mxCell>
        <mxCell id="wjF6M2Yu668ZBDFbbwRF-129" value="&lt;b&gt;B.6&lt;/b&gt;" style="ellipse;whiteSpace=wrap;html=1;gradientColor=#ffffff;fillColor=#FFAA54;" parent="1" vertex="1">
          <mxGeometry x="750" y="577" width="45" height="30" as="geometry" />
        </mxCell>
        <mxCell id="wjF6M2Yu668ZBDFbbwRF-131" value="&lt;b&gt;B.10&lt;br&gt;&lt;/b&gt;" style="ellipse;whiteSpace=wrap;html=1;gradientColor=#ffffff;fillColor=#FFAA54;" parent="1" vertex="1">
          <mxGeometry x="915" y="816" width="45" height="30" as="geometry" />
        </mxCell>
        <mxCell id="wjF6M2Yu668ZBDFbbwRF-132" value="&lt;b&gt;B.8&lt;/b&gt;" style="ellipse;whiteSpace=wrap;html=1;gradientColor=#ffffff;fillColor=#FFAA54;" parent="1" vertex="1">
          <mxGeometry x="915" y="705" width="45" height="30" as="geometry" />
        </mxCell>
        <mxCell id="l2k97XLpl-mliVpzi99C-8" value="" style="endArrow=classic;html=1;rounded=0;entryX=0;entryY=0.5;entryDx=0;entryDy=0;exitX=0.995;exitY=0.173;exitDx=0;exitDy=0;exitPerimeter=0;" edge="1" parent="1" source="GJOkn2DgcXXOF6PlL42Y-30" target="l2k97XLpl-mliVpzi99C-6">
          <mxGeometry width="50" height="50" relative="1" as="geometry">
            <mxPoint x="360" y="195" as="sourcePoint" />
            <mxPoint x="560.4299999999998" y="194.92200000000003" as="targetPoint" />
          </mxGeometry>
        </mxCell>
        <mxCell id="l2k97XLpl-mliVpzi99C-9" value="&amp;nbsp; GET&amp;nbsp;" style="edgeLabel;html=1;align=center;verticalAlign=middle;resizable=0;points=[];" vertex="1" connectable="0" parent="l2k97XLpl-mliVpzi99C-8">
          <mxGeometry x="0.089" y="-1" relative="1" as="geometry">
            <mxPoint x="-1" as="offset" />
          </mxGeometry>
        </mxCell>
      </root>
    </mxGraphModel>
  </diagram>
</mxfile>
